<svg xmlns="http://www.w3.org/2000/svg" viewBox="0 0 1000 1000"><path fill="#a9b7b7" d="M455.33 11.61c-113.7 10.58-219.32 60.41-301.08 142.17C41.51 266.13-9.67 425.62 16.88 581.45c8.08 47.71 21.74 89.46 44.06 135.06 23.66 48.29 53.87 90.42 92.35 129.09 109.28 109.66 261.84 161.22 414.59 140.25 183.54-25.2 338.79-154.49 397.85-331.29 8.66-25.97 16.16-57.72 20.97-88.5 4.42-29.24 4.42-100.81-.19-132.36-7.5-53.1-22.7-101.58-46.36-150.06-24.43-49.83-54.06-90.81-95.23-131.78C742.57 50.08 598.85-1.67 455.33 11.61zm71 171.03c23.66 7.31 46.36 29.44 54.06 52.91 10.58 31.74 2.12 65.22-22.13 88.31-20.01 19.05-45.4 27.13-71.38 22.51-45.98-8.27-77.15-51.56-69.45-96.39 8.85-51.57 59.26-82.54 108.9-67.34zm2.5 205.85c14.62 6.73 26.36 18.28 33.09 32.51l5 10.77.96 147.75.96 147.95 5.19 4.42c6.73 5.77 11.93 4.42 18.85-5.19 9.81-13.47 17.89-40.59 22.13-73.49 1.73-12.89 9.04-20.39 20.2-20.39 16.74 0 21.74 8.46 19.05 32.9-9.24 82.34-56.56 137.94-130.63 152.95-21.36 4.23-38.09 3.08-52.52-4.04-13.08-6.35-26.74-20.2-32.71-33.09-4.23-9.23-4.23-9.43-5.19-156.41-.96-136.79-1.15-147.75-4.42-152.56-6.73-10.39-17.12-4.43-27.13 15.39-6.16 12.5-12.12 33.86-13.66 49.25-1.73 17.12-4.23 23.66-11.16 29.43-5 4.23-7.31 4.81-13.66 4.04-4.62-.58-9.43-3.08-12.5-6.16-4.43-4.42-5-6.16-4.62-16.93.38-6.54 1.73-18.86 3.46-27.51 12.31-65.41 49.25-110.43 106.2-129.47 31.93-10.78 52.71-11.35 73.11-2.12z"/></svg>